PathFileType	4	(X/Y/Z)	Walk3.trc
DataRate	CameraRate	NumFrames	NumMarkers	Units	OrigDataRate	OrigDataStartFrame	OrigNumFrames
200.000000	200.000000	4	68	mm	200.000000	816	1063
Frame#	Times		LFHD		LowerBodyModelVer		RFHD		RACR1		RCAR		LElbow		RWRU		RUA1		LACR1		LLFC		RASI		RFA1		LUA1		LTH3		LTB1		RTH2		LMT1		LMT5		RTH4		LTB4		LTH4		LTB3		LToe		RLFC		CLAV		STRN		LTH2		LLMAL		LASI		LTH1		PELOrigin		RTH3		LWRU		RElbow		RBack		LFA1		LPSI		RMT1		RMT5		LBHD		RPSI		LHJC		MidPelvis		OPelvis		RHJC		SACR		XPelvis		YPelvis		ZPelvis		RCAL		LCAR		C7		RToe		RLMAL		RBHD		RTB2		RTB3		RTH1		LWRR		RTB1		RTB4		RMMAL		LTB2		RElbowM		T10		RWRR		LMMAL		LCAL
			X1	Y1	Z1	X2	Y2	Z2	X3	Y3	Z3	X4	Y4	Z4	X5	Y5	Z5	X6	Y6	Z6	X7	Y7	Z7	X8	Y8	Z8	X9	Y9	Z9	X10	Y10	Z10	X11	Y11	Z11	X12	Y12	Z12	X13	Y13	Z13	X14	Y14	Z14	X15	Y15	Z15	X16	Y16	Z16	X17	Y17	Z17	X18	Y18	Z18	X19	Y19	Z19	X20	Y20	Z20	X21	Y21	Z21	X22	Y22	Z22	X23	Y23	Z23	X24	Y24	Z24	X25	Y25	Z25	X26	Y26	Z26	X27	Y27	Z27	X28	Y28	Z28	X29	Y29	Z29	X30	Y30	Z30	X31	Y31	Z31	X32	Y32	Z32	X33	Y33	Z33	X34	Y34	Z34	X35	Y35	Z35	X36	Y36	Z36	X37	Y37	Z37	X38	Y38	Z38	X39	Y39	Z39	X40	Y40	Z40	X41	Y41	Z41	X42	Y42	Z42	X43	Y43	Z43	X44	Y44	Z44	X45	Y45	Z45	X46	Y46	Z46	X47	Y47	Z47	X48	Y48	Z48	X49	Y49	Z49	X50	Y50	Z50	X51	Y51	Z51	X52	Y52	Z52	X53	Y53	Z53	X54	Y54	Z54	X55	Y55	Z55	X56	Y56	Z56	X57	Y57	Z57	X58	Y58	Z58	X59	Y59	Z59	X60	Y60	Z60	X61	Y61	Z61	X62	Y62	Z62	X63	Y63	Z63	X64	Y64	Z64	X65	Y65	Z65	X66	Y66	Z66	X67	Y67	Z67	X68	Y68	Z68

816	4.08	-72.875	1575.2	-84.076	9	2014	4	-70.373	1572.9	13.481	-209.53	1376.9	138.83	-266.76	783.01	299	-195.87	1047.4	-335.46	-301.26	842.79	313.7	-262.75	1240	228.76	-180.33	1341.7	-218.25	-263.38	486.5	-156.45	-125.97	965.71	160.3	-270.25	946.43	284.62	-178.07	1196.3	-296.12	-222.6	555.28	-170.27	-260.27	332.37	-49.95	-75.436	662.45	186	-214.01	37.106	-29.956	-227.47	24.332	-121.02	-130.35	646.37	205.06	-279.24	248.8	-55.429	-198.84	634.85	-198.82	-292.11	164.05	-57.158	-171.17	30.887	-28.746	-90.128	473.58	183.42	-124.81	1330.4	-35.04	-65.717	1212.7	-13.695	-149.2	630.17	-165.77	-344.05	70.411	-115.69	-124.73	952.41	-198.96	-171.58	710.13	-227.69	-125.35	959.06	-19.331	-108.56	563.08	192.59	-81.893	831.68	-378.64	-321.44	1080.3	265.25	-346.14	1315.7	55.655	-101.43	948.17	-349.84	-360.03	974.9	-111.82	71.839	61.568	113.72	46.43	51.978	195.54	-223.92	1552.5	-109.14	-373.83	971.36	20.376	-214.91	844.93	-137.73	-246.14	966.1	-32.526	-125.35	959.06	-19.331	-215.75	853.98	106.57	-366.93	973.13	-45.722	-45.505	954.11	-18.874	-120.38	1038.9	-22.268	-125.62	962.02	60.614	-113.49	33.257	119.72	-31.353	799.45	-370.71	-281.52	1411.4	-38.773	109.82	69.037	129.14	-73.417	76.814	172.17	-240.64	1560.1	25.734	-50.908	291.93	176.17	-29.408	201.32	122.57	-143.43	729.26	219.63	-44.552	843.67	-315.02	-17.794	371.41	114.69	-23.601	286.36	118.63	-43.258	89.855	92.042	-278.26	251.83	-116.91	-348.78	1066.2	177.39	-342.87	1081.2	-34.001	-257.79	839.69	252.34	-335.96	76.75	-31.656	-401.94	32.089	-76.107
817	4.085	-68.471	1574.6	-83.679	9	2014	4	-66.031	1572.2	13.885	-205.25	1376.1	139.07	-262.64	782.4	299.53	-189.43	1046.9	-335.48	-297.16	842.16	314.13	-258.51	1239.3	228.99	-175.92	1341.1	-217.99	-261.15	486.37	-156.25	-121.18	964.75	160.28	-266.09	945.76	284.99	-172.51	1195.7	-295.76	-220.04	554.94	-170.12	-258.95	332.18	-49.76	-70.946	661.19	185.2	-213.95	37.091	-29.975	-227.49	24.32	-121.02	-125.73	645.3	204.86	-278.27	248.72	-55.329	-196.03	634.39	-198.8	-291.59	164.03	-57.066	-171.06	30.809	-28.801	-85.645	472.42	182.83	-120.48	1329.7	-34.887	-61.314	1212	-13.971	-146.27	629.5	-165.95	-343.88	70.624	-115.68	-120.72	951.84	-199.24	-168.53	709.5	-227.8	-120.95	958.3	-19.48	-104.29	561.99	192.34	-72.944	832.37	-377.92	-317.21	1079.6	265.57	-341.84	1314.9	55.902	-93.886	948.64	-349.31	-355.89	973.98	-111.02	87.357	64.436	113.21	62.993	54.339	195.3	-219.48	1551.8	-108.85	-369.25	970.35	21.189	-210.71	844.14	-137.89	-241.76	965.23	-32.197	-120.95	958.3	-19.48	-211.02	852.91	106.58	-362.57	972.17	-44.914	-41.099	953.42	-19.203	-116.07	1038.1	-22.338	-121.05	961.17	60.468	-97.112	31.458	121.07	-22.084	800.66	-369.68	-277.22	1410.7	-38.573	125.25	72.94	128.13	-57.71	76.17	172.99	-236.29	1559.3	26.02	-41.221	292.03	175.84	-17.632	201.72	122.5	-138.49	728.2	219.58	-36.084	844.78	-314.1	-10.929	372.06	113.72	-14.281	286.89	118.11	-28.553	89.772	92.587	-277.22	251.76	-116.77	-344.53	1065.5	177.69	-338.55	1080.4	-33.428	-253.7	838.98	252.76	-335.78	76.947	-31.623	-401.9	32.431	-76.099
818	4.09	-64.066	1573.9	-83.248	9	2014	4	-61.688	1571.4	14.325	-200.95	1375.4	139.34	-258.44	781.77	300.08	-182.98	1046.4	-335.46	-293.01	841.5	314.58	-254.28	1238.6	229.25	-171.53	1340.4	-217.69	-258.87	486.24	-156.03	-116.37	963.76	160.28	-261.88	945.06	285.38	-166.93	1195.1	-295.33	-217.41	554.6	-169.97	-257.54	331.97	-49.61	-66.521	659.83	184.44	-213.89	37.077	-29.998	-227.51	24.308	-121.03	-121.18	644.16	204.68	-277.25	248.64	-55.255	-193.2	633.92	-198.78	-291.03	164.02	-56.998	-170.95	30.728	-28.856	-81.197	471.22	182.25	-116.14	1328.9	-34.724	-56.885	1211.2	-14.278	-143.31	628.84	-166.14	-343.71	70.852	-115.66	-116.68	951.28	-199.51	-165.48	708.88	-227.91	-116.52	957.52	-19.61	-100.09	560.8	192.09	-64.069	833.08	-377.16	-312.95	1079	265.92	-337.54	1314.1	56.194	-86.384	949.12	-348.72	-351.73	973.05	-110.19	102.5	67.453	112.58	79.231	56.865	194.94	-215.05	1551.1	-108.52	-364.64	969.33	22.032	-206.48	843.33	-138.05	-237.35	964.36	-31.845	-116.52	957.52	-19.61	-206.28	851.82	106.61	-358.18	971.19	-44.08	-36.669	952.73	-19.511	-111.73	1037.3	-22.383	-116.46	960.3	60.341	-81.02	29.934	122.39	-12.902	801.89	-368.61	-272.92	1410	-38.335	140.29	76.955	126.98	-42.259	75.78	173.75	-231.94	1558.5	26.341	-31.657	292.23	175.45	-6.0879	202.25	122.36	-133.6	727.05	219.54	-27.697	845.88	-313.13	-4.191	372.72	112.67	-5.1395	287.48	117.51	-14.141	89.908	93.076	-276.16	251.69	-116.65	-340.23	1064.8	178.01	-334.21	1079.7	-32.805	-249.54	838.27	253.22	-335.59	77.158	-31.587	-401.85	32.803	-76.092
819	4.095	-59.659	1573.2	-82.784	9	2014	4	-57.346	1570.7	14.802	-196.62	1374.7	139.62	-254.18	781.13	300.66	-176.51	1046	-335.38	-288.79	840.82	315.06	-250.05	1237.9	229.54	-167.16	1339.8	-217.37	-256.53	486.1	-155.81	-111.55	962.76	160.31	-257.61	944.35	285.8	-161.32	1194.6	-294.83	-214.74	554.25	-169.81	-256.05	331.76	-49.502	-62.153	658.39	183.71	-213.82	37.065	-30.026	-227.53	24.294	-121.03	-116.68	642.95	204.53	-276.18	248.56	-55.208	-190.34	633.45	-198.76	-290.43	164	-56.956	-170.83	30.643	-28.912	-76.766	470	181.68	-111.79	1328.2	-34.547	-52.43	1210.5	-14.607	-140.32	628.19	-166.34	-343.53	71.097	-115.64	-112.6	950.72	-199.75	-162.42	708.25	-228.03	-112.07	956.74	-19.719	-95.956	559.53	191.85	-55.268	833.8	-376.35	-308.65	1078.3	266.3	-333.22	1313.3	56.532	-78.927	949.61	-348.07	-347.55	972.11	-109.35	117.24	70.581	111.86	95.093	59.519	194.48	-210.62	1550.4	-108.16	-359.98	968.3	22.9	-202.23	842.52	-138.19	-232.92	963.47	-31.473	-112.07	956.74	-19.719	-201.51	850.71	106.65	-353.76	970.21	-43.226	-32.213	952.02	-19.796	-107.37	1036.6	-22.403	-111.84	959.41	60.236	-65.259	28.674	123.67	-3.809	803.12	-367.49	-268.62	1409.2	-38.059	154.91	81.039	125.73	-27.114	75.628	174.45	-227.59	1557.7	26.695	-22.224	292.53	175.01	5.2044	202.9	122.16	-128.74	725.83	219.52	-19.391	846.98	-312.1	2.4276	373.36	111.56	3.816	288.13	116.86	-0.057132	90.243	93.508	-275.09	251.62	-116.56	-335.9	1064	178.36	-329.84	1078.9	-32.135	-245.32	837.53	253.7	-335.37	77.384	-31.546	-401.8	33.204	-76.082
